<?xml version="1.0" encoding="UTF-8"?>
<svg id="Layer_1" data-name="Layer 1" xmlns="http://www.w3.org/2000/svg" viewBox="0 0 700 700">
  <defs>
    <style>
      .cls-1 {
        fill: #c1262e;
        fill-rule: evenodd;
      }
    </style>
  </defs>
  <path class="cls-1" d="M146.47,463.51h21.12v3.28l-36.48,82.82h-9.32l-36.84-82.82v-3.28h21.12l20.15,48.15h.62l19.64-48.15h0Zm65.46,18.97h10.08v-18.97h-41.88v18.97h10.07v47.06h-10.93v19.09h43.59v-19.09h-10.93v-47.06h0Zm50.4,36.24v-55.21h-22.12v85.12h53.3v-19.58h-31.18v-10.33h0Zm100.87-13.56l-43.47-42.02h-.13v-.22h-19.45v18.65h11.59v67.07h22.73v-41.83l43.35,41.83h7.86v-85.12h-22.48v41.65h0Zm72.99-22.69h10.07v-18.97h-41.88v18.97h10.07v47.06h-10.94v19.09h43.61v-19.09h-10.93v-47.06h0Zm74.71-18.97v56.42c-.02,1.75-.39,3.25-1.12,4.54-.74,1.31-1.74,2.38-3,3.23-1.25,.87-2.64,1.5-4.17,1.93-1.54,.45-3.11,.65-4.73,.65s-3.19-.2-4.74-.65c-1.56-.43-2.94-1.05-4.22-1.93-1.26-.85-2.27-1.92-3.03-3.23-.74-1.28-1.13-2.79-1.14-4.54v-56.42h-21.01v56.79c.02,3.75,.64,7.18,1.86,10.26,1.23,3.1,2.93,5.83,5.1,8.23,2.17,2.39,4.71,4.42,7.57,6.06,2.88,1.64,5.97,2.88,9.31,3.73,3.34,.85,6.75,1.28,10.29,1.28s7-.43,10.33-1.28c3.32-.85,6.43-2.09,9.28-3.73,2.86-1.63,5.38-3.66,7.54-6.06,2.14-2.4,3.82-5.13,5.03-8.23,1.2-3.08,1.82-6.51,1.84-10.26v-56.79h-20.99Zm103.27,49.54c-1.23-2.87-2.93-5.23-5.12-7.04-2.18-1.82-4.68-3.25-7.53-4.27-2.84-1.04-5.93-1.83-9.19-2.37-3.28-.53-6.63-.98-10.07-1.33-1.94-.2-3.77-.47-5.47-.81-1.7-.33-3.18-.79-4.45-1.4-1.26-.63-2.23-1.44-2.88-2.47-.67-1.04-.94-2.36-.83-3.96,.12-1.44,.64-2.7,1.55-3.75,.91-1.08,2.07-1.93,3.5-2.59,1.42-.67,2.97-1.12,4.62-1.36,1.68-.24,3.34-.26,5-.08,1.65,.2,3.17,.63,4.55,1.26,1.38,.65,2.48,1.54,3.32,2.68,.81,1.11,1.24,2.46,1.26,4.09h20.88c.02-4.08-.7-7.7-2.15-10.88-1.45-3.16-3.46-5.89-6.02-8.17-2.55-2.25-5.48-4.08-8.79-5.44-3.29-1.35-6.78-2.27-10.43-2.71-3.67-.46-7.33-.46-10.99,0-3.66,.44-7.13,1.36-10.42,2.71-3.3,1.36-6.2,3.18-8.75,5.44-2.55,2.27-4.54,5.01-5.97,8.17-1.43,3.18-2.1,6.81-2.06,10.88,.07,4.6,.85,8.5,2.34,11.7s3.61,5.8,6.35,7.79c2.71,2,5.97,3.55,9.78,4.6,3.79,1.05,8.03,1.72,12.71,2.05,2.16,.12,4.19,.3,6.08,.59,1.9,.26,3.56,.7,5.01,1.25,1.44,.55,2.57,1.32,3.38,2.27,.82,.98,1.23,2.2,1.25,3.67-.02,1.42-.52,2.64-1.49,3.65-.96,1.02-2.23,1.82-3.82,2.41-1.6,.59-3.36,.97-5.26,1.16-1.91,.17-3.83,.12-5.74-.11-1.9-.26-3.66-.72-5.24-1.4-1.59-.7-2.88-1.59-3.84-2.68-.96-1.11-1.49-2.45-1.5-3.99h-21.25c-.02,4.15,.73,7.85,2.25,11.09,1.53,3.22,3.63,5.98,6.32,8.27,2.68,2.31,5.78,4.14,9.23,5.51,3.45,1.38,7.12,2.31,10.98,2.78,3.86,.46,7.71,.46,11.58,.04,3.87-.44,7.53-1.35,11.01-2.66,3.48-1.34,6.59-3.13,9.31-5.35,2.73-2.21,4.85-4.89,6.42-7.99,1.56-3.1,2.36-6.64,2.4-10.61-.02-4.23-.66-7.78-1.86-10.65h0Z"/>
  <path class="cls-1" d="M405.49,135.95l-16.61-3.78-1.06-25.57-34.69-.02h0s-2.18,0-2.18,0h-2.18s0,0,0,0l-34.69,.02-1.06,25.57-16.61,3.78-5.48-25.37-53.93,18.2-28.74,223.15,88.02,52.71,52.49,.12h0s2.18,0,2.18,0h2.18s0,0,0,0l52.49-.12,88.02-52.71-28.74-223.15-53.93-18.2-5.48,25.37h0Zm-54.54-2.34l16.24,.04,.14,23.5,51.74,11.38,5.24-23.54,13.2,3.9,22.16,183.49-63.08,37.92-43.45-.2v-.02h-2.18s-2.18,0-2.18,0v.02l-43.45,.2-63.08-37.92,22.16-183.49,13.2-3.9,5.24,23.54,51.74-11.38,.14-23.5,16.24-.04h0Z"/>
</svg>